<?xml version="1.0" standalone="no"?>
<!DOCTYPE svg PUBLIC "-//W3C//DTD SVG 20010904//EN"
 "http://www.w3.org/TR/2001/REC-SVG-20010904/DTD/svg10.dtd">
<svg version="1.0" xmlns="http://www.w3.org/2000/svg"
 width="569.000000pt" height="131.000000pt" viewBox="0 0 569.000000 131.000000"
 preserveAspectRatio="xMidYMid meet">
<metadata>
Created by potrace 1.10, written by Peter Selinger 2001-2011
</metadata>
<g transform="translate(0.000000,131.000000) scale(0.050000,-0.050000)"
fill="#090761" stroke="none">
<path d="M4965 1958 c-110 -32 -134 -95 -142 -363 -15 -488 9 -522 362 -532
337 -8 362 10 372 273 11 276 -41 326 -322 313 l-155 -7 0 67 c0 86 22 93 241
78 l179 -13 0 84 c0 49 -10 86 -25 91 -62 20 -452 26 -510 9z m351 -603 l-6
-105 -110 0 -110 0 -6 105 -6 105 122 0 122 0 -6 -105z"/>
<path d="M7320 1963 c-144 -38 -160 -80 -160 -441 0 -441 17 -462 379 -462
300 0 343 33 355 272 13 265 -65 338 -339 315 l-155 -13 0 59 c0 98 26 108
245 94 l196 -13 -5 84 c-5 65 -15 85 -46 92 -81 16 -422 26 -470 13z m336
-577 c13 -127 -144 -210 -232 -122 -26 26 -33 160 -10 184 50 49 236 1 242
-62z"/>
<path d="M478 1902 c-54 -55 -58 -70 -58 -209 0 -232 32 -260 313 -273 l217
-10 6 -56 c13 -108 -16 -118 -289 -103 l-247 14 0 -90 0 -89 123 -13 c497 -52
636 -4 653 224 17 239 -51 303 -323 303 -187 0 -220 18 -209 114 l6 56 225 6
225 5 0 90 0 89 -292 0 -291 0 -59 -58z"/>
<path d="M1320 1510 l0 -454 306 7 c452 10 494 49 494 453 0 410 -23 432 -472
441 l-328 6 0 -453z m529 239 c24 -25 31 -76 31 -222 0 -257 -7 -267 -181
-267 l-139 0 0 260 0 260 129 0 c90 0 138 -9 160 -31z"/>
<path d="M2260 1510 l0 -450 120 0 120 0 0 260 c0 143 7 260 15 260 8 -1 74
-115 146 -255 l131 -255 129 0 129 0 4 400 c6 519 14 490 -134 490 l-120 0 0
-254 c0 -295 4 -295 -160 19 l-123 235 -129 0 -128 0 0 -450z"/>
<path d="M3623 1909 c-87 -39 -105 -55 -93 -84 8 -19 19 -51 25 -71 10 -36 42
-37 133 -2 29 11 32 -26 32 -340 l0 -352 120 0 120 0 0 450 0 450 -115 -1
c-77 -1 -150 -17 -222 -50z"/>
<path d="M4060 1870 l0 -90 222 0 c170 0 220 -6 212 -25 -6 -14 -66 -155 -134
-315 -68 -159 -132 -311 -142 -336 -17 -45 -16 -46 114 -40 l132 6 109 260
c168 401 172 413 182 525 l9 105 -352 0 -352 0 0 -90z"/>
<path d="M5580 1870 l0 -90 220 0 c123 0 220 -8 220 -19 0 -10 -63 -165 -140
-344 -168 -391 -167 -357 -14 -357 l126 0 144 355 c109 268 144 378 144 450
l0 95 -350 0 -350 0 0 -90z"/>
<path d="M6340 1872 l0 -91 215 -5 215 -6 6 -68 c9 -87 -16 -101 -171 -102
l-125 0 0 -80 0 -80 115 0 c198 -1 246 -35 216 -153 l-12 -50 -230 14 -229 14
0 -90 0 -90 93 -12 c256 -35 482 -17 552 45 96 87 98 301 2 378 l-62 50 53 45
c77 67 75 225 -3 304 -55 54 -59 55 -345 61 l-290 7 0 -91z"/>
<path d="M7920 1870 l0 -90 220 0 c121 0 220 -2 220 -5 0 -3 -64 -154 -142
-335 -78 -182 -146 -342 -152 -356 -9 -20 19 -25 124 -20 l135 6 141 340 c94
228 144 375 149 445 l9 105 -352 0 -352 0 0 -90z"/>
</g>
</svg>
