<?xml version="1.0" standalone="no"?>
<!DOCTYPE svg PUBLIC "-//W3C//DTD SVG 20010904//EN"
 "http://www.w3.org/TR/2001/REC-SVG-20010904/DTD/svg10.dtd">
<svg version="1.0" xmlns="http://www.w3.org/2000/svg"
 width="552.000000pt" height="227.000000pt" viewBox="0 0 552.000000 227.000000"
 preserveAspectRatio="xMidYMid meet">

<g transform="translate(0.000000,227.000000) scale(0.100000,-0.100000)"
fill="#000000" stroke="none">
<path d="M3289 1301 c-91 -29 -99 -51 -99 -281 0 -278 5 -283 241 -278 147 3
149 3 176 31 27 26 28 32 31 145 l3 117 -31 30 -31 30 -125 -1 -124 0 0 37 c0
64 14 70 151 63 l119 -7 0 51 c0 47 -2 51 -27 56 -54 10 -258 15 -284 7z m209
-360 c6 -85 1 -91 -78 -91 -58 0 -71 3 -80 19 -14 28 -13 108 3 115 6 2 44 4
82 3 l70 -2 3 -44z"/>
<path d="M4265 1295 c-76 -28 -88 -70 -83 -299 5 -251 9 -256 227 -256 156 0
184 7 209 54 23 45 29 191 9 238 -25 60 -60 72 -195 65 l-115 -6 6 46 c2 25
11 49 18 54 8 5 69 6 137 3 l122 -7 0 51 0 50 -37 6 c-104 15 -259 16 -298 1z
m229 -337 c6 -17 6 -42 0 -65 l-9 -38 -73 -3 c-70 -3 -72 -2 -82 23 -6 15 -10
44 -10 65 0 46 7 49 100 47 61 -2 65 -4 74 -29z"/>
<path d="M554 1286 c-58 -26 -74 -58 -74 -153 0 -150 30 -173 219 -173 l121 0
0 -44 c0 -66 -7 -69 -185 -65 l-155 4 0 -51 0 -51 68 -6 c37 -4 125 -7 195 -7
147 0 180 11 203 65 20 49 18 162 -4 205 -25 52 -60 64 -191 67 -124 3 -131 6
-131 59 0 50 12 54 157 54 l133 0 0 55 0 55 -162 0 c-114 -1 -172 -5 -194 -14z"/>
<path d="M1032 1023 l3 -278 185 0 c210 0 242 8 282 74 21 34 23 47 23 201 0
148 -2 169 -20 200 -40 67 -66 75 -283 78 l-192 4 2 -279z m329 148 c23 -18
24 -25 24 -150 0 -164 -1 -165 -120 -170 l-85 -3 0 171 0 171 79 0 c63 0 84
-4 102 -19z"/>
<path d="M1610 1020 l0 -280 70 0 70 0 0 167 c0 103 4 163 9 158 5 -6 50 -80
99 -165 l89 -155 74 0 74 0 3 278 2 277 -70 0 -70 0 0 -160 c0 -88 -3 -160 -7
-160 -5 0 -49 71 -99 158 l-90 157 -77 3 -77 3 0 -281z"/>
<path d="M2460 1269 c-35 -17 -66 -31 -68 -33 -5 -6 30 -86 38 -86 4 0 26 7
49 15 l41 14 0 -219 0 -220 70 0 70 0 0 280 0 280 -67 -1 c-53 0 -82 -7 -133
-30z"/>
<path d="M2720 1245 l0 -54 139 -3 139 -3 -89 -204 c-49 -112 -91 -212 -94
-222 -6 -17 0 -19 69 -19 63 0 77 3 85 18 6 10 48 112 95 227 71 172 86 217
86 261 l0 54 -215 0 -215 0 0 -55z"/>
<path d="M3690 1245 l0 -55 124 0 c134 0 156 -8 156 -54 0 -45 -19 -55 -110
-58 l-85 -3 -3 -52 -3 -53 89 0 c110 0 125 -9 120 -70 l-3 -45 -148 0 -147 0
0 -51 0 -51 53 -7 c92 -11 300 -7 326 7 45 23 63 60 64 129 1 71 -19 117 -60
139 l-23 12 30 30 c46 45 52 130 14 186 -30 42 -71 51 -239 51 l-155 0 0 -55z"/>
<path d="M4650 1245 l0 -55 135 0 c74 0 135 -4 135 -8 0 -4 -40 -102 -90 -217
-49 -115 -90 -213 -90 -217 0 -5 34 -8 77 -6 l76 3 93 225 c77 185 93 234 94
278 l0 52 -215 0 -215 0 0 -55z"/>
</g>
</svg>
